# xmcd
#
# Track frame offsets: 
#        150
#        32962
#        59462
#        84862
#        105892
#        126562
#        150350
#        208330
#        245981
#        276528
#
# Disc length: 3879 seconds
#
# Revision: 0
# Processed by: cddbd v1.5.2PL0 Copyright (c) Steve Scherf et al.
# Submitted via: ExactAudioCopy v0.99pb5
#
DISCID=910f250a
DTITLE=Brian Kramer - Live at Club Stampen
DYEAR=2008
DGENRE=Blues
TTITLE0=Just sittin' here thinkin'
TTITLE1=Win or lose
TTITLE2=Pause
TTITLE3=I get it wrong
TTITLE4=Everything is headed somewhere
TTITLE5=Spirit of Washington Square
TTITLE6=Cypress Grove
TTITLE7=Say goodbye to B'klyn
TTITLE8=Cross boundaries
TTITLE9=Introducing the nights of Blu-topia
EXTD=
EXTT0=
EXTT1=
EXTT2=
EXTT3=
EXTT4=
EXTT5=
EXTT6=
EXTT7=
EXTT8=
EXTT9=
PLAYORDER=
